<?xml version="1.0" encoding="utf-8"?>
<!-- Generator: Adobe Illustrator 27.5.0, SVG Export Plug-In . SVG Version: 6.00 Build 0)  -->
<svg version="1.1" xmlns="http://www.w3.org/2000/svg" xmlns:xlink="http://www.w3.org/1999/xlink" x="0px" y="0px"
	 viewBox="0 0 500 500" style="enable-background:new 0 0 500 500;" xml:space="preserve">
<g id="BACKGROUND">
	<rect id="XMLID_865_" style="fill:#FFFFFF;" width="500" height="500"/>
</g>
<g id="OBJECTS">
	<ellipse id="XMLID_1236_" style="opacity:0.65;fill:#C7D4E2;" cx="259.866" cy="387.658" rx="189.983" ry="9.736"/>
	<g id="XMLID_419_">
		<path id="XMLID_779_" style="fill:#A7BBE4;" d="M95.904,374.694V162.56c0-8.417,6.823-15.24,15.24-15.24h283.894
			c8.417,0,15.24,6.823,15.24,15.24v212.135c0,8.417-6.823,15.24-15.24,15.24H111.144
			C102.727,389.935,95.904,383.111,95.904,374.694z"/>
		
			<linearGradient id="XMLID_00000046303239631708893370000007070653938277491855_" gradientUnits="userSpaceOnUse" x1="208.3084" y1="200.1788" x2="306.9404" y2="420.7747" gradientTransform="matrix(0 1 -1 0 497.6843 41.8973)">
			<stop  offset="0" style="stop-color:#FFFFFF"/>
			<stop  offset="1" style="stop-color:#C6D4EE"/>
		</linearGradient>
		<path id="XMLID_778_" style="fill:url(#XMLID_00000046303239631708893370000007070653938277491855_);" d="M116.464,368.585
			l0-199.915c0-5.768,4.676-10.443,10.443-10.443h258.795c5.768,0,10.443,4.676,10.443,10.443v199.915
			c0,5.768-4.676,10.443-10.443,10.443H126.908C121.14,379.028,116.464,374.352,116.464,368.585z"/>
		<path id="XMLID_777_" style="fill:#6F95D4;" d="M105.662,277.933c-2.954,0-5.348-2.394-5.348-5.348
			c0-2.954,2.394-5.348,5.348-5.348c2.953,0,5.348,2.394,5.348,5.348C111.01,275.539,108.616,277.933,105.662,277.933z"/>
	</g>
	<g id="XMLID_1_">
		<path id="XMLID_913_" style="fill:#3B5CAD;" d="M130.48,137.347c17.282,1.467,34.936,1.959,51.703-0.732l-24.271,14.234
			L130.48,137.347z"/>
		<path id="XMLID_927_" style="fill:#F7C5B4;" d="M178.075,124.55c1.883-1.076,5.785-3.209,7.741-4.146
			c3.276,11.284,1.99,14.164-1.918,14.616c-1.297,0.15-2.546,0.318-3.848,0.223c-3.185-0.234-6.126-0.614-8.986-1.902
			c0.19-1.029,0.147-3.159,0.337-4.188c2.553-0.417,5.446-1.022,7.999-1.439L178.075,124.55z"/>
		<path id="XMLID_314_" style="fill:#F7C5B4;" d="M137.069,124.55c-1.883-1.076-5.785-3.209-7.741-4.146
			c-3.276,11.284-1.99,14.164,1.918,14.616c1.297,0.15,3.237,0.508,4.525,0.298c3.096-0.506,5.449-0.549,8.309-1.836
			c-0.19-1.029-0.147-3.3-0.337-4.329c-2.553-0.417-5.446-1.022-7.999-1.439L137.069,124.55z"/>
		<g id="XMLID_907_">
			<path id="XMLID_908_" style="fill:#003A70;" d="M141.153,140.211c-0.007-4.561-1.371-13.596-1.738-19.771l-2.064,4.347
				l-8.254-4.382c0.815-2.827,3.061-6.431,4.7-9.092c3.402-5.521,7.738-8.388,14.368-10.292c2.608-0.749,5.315-1.423,9.1-1.456
				h0.454c3.785,0.033,6.975,0.643,9.621,1.245c6.324,1.438,11.441,6.164,14.843,11.685c1.64,2.661,2.973,4.909,4.086,7.668
				l-8.635,4.625l-2.064-4.347c-0.458,6.657-1.638,13.41-2.155,19.771H141.153z"/>
		</g>
		<path id="XMLID_906_" style="fill:#F7C5B4;" d="M154.03,89.589c-0.239,1.908-1.397,7.878-1.726,8.503
			c-0.527,0.999-2.662,2.275-3.518,2.753c0,0,0.21,3.389,9.17,3.477c8.817,0.087,9.384-3.513,9.384-3.513
			c-0.856-0.478-3.319-1.245-3.728-2.717c-0.189-0.68-1.358-6.336-1.597-8.244L154.03,89.589z"/>
		<path id="XMLID_905_" style="fill:#F7C5B4;" d="M167.77,74.169c0.747,4.044-0.316,12.182-1.183,15.398
			c-0.353,1.307-0.732,2.658-1.574,3.719c-4.159,5.239-9.702,3.583-11.525,2.385c-1.43-0.94-2.569-2.23-3.228-3.809
			c-1.682-4.03-2.373-8.469-1.993-12.819c0,0-0.484-11.352,11.127-11.352C159.394,67.69,166.523,67.417,167.77,74.169z"/>
		<path id="XMLID_904_" style="fill:#F7C5B4;" d="M148.786,85.299c-0.249,0.361-0.827,0.35-1.171,0.077
			c-0.343-0.273-0.497-0.719-0.581-1.15c-0.082-0.421-0.114-0.852-0.095-1.281c0.014-0.307,0.061-0.633,0.262-0.867
			c0.2-0.233,0.542-0.332,0.835-0.243c0.293,0.09,0.522,0.363,0.557,0.667L148.786,85.299z"/>
		<path id="XMLID_903_" style="fill:#F7C5B4;" d="M167.325,82.503c0.095-0.291,0.264-0.578,0.558-0.667
			c0.293-0.089,0.635,0.01,0.835,0.243c0.2,0.233,0.248,0.559,0.262,0.867c0.019,0.429-0.013,0.86-0.095,1.281
			c-0.084,0.431-0.237,0.877-0.581,1.15c-0.343,0.273-0.921,0.284-1.171-0.077C167.132,85.299,166.879,83.867,167.325,82.503z"/>
		<g id="XMLID_900_">
			<path id="XMLID_23_" style="fill:#DA806C;" d="M157.756,85.685c0,0-0.025,0.072-0.04,0.171c-0.019,0.113-0.043,0.283-0.065,0.488
				c-0.046,0.41-0.108,0.958-0.17,1.505c-0.024,0.269-0.056,0.56-0.057,0.788c0.012,0.11,0.012,0.184,0.055,0.23
				c0.017,0.024,0.123,0.082,0.206,0.106c0.365,0.102,0.647,0.168,0.647,0.168c0.066,0.016,0.107,0.081,0.091,0.147
				c-0.014,0.058-0.068,0.096-0.125,0.095c0,0-0.07-0.002-0.192-0.006c-0.124-0.001-0.3-0.017-0.521-0.075
				c-0.113-0.037-0.229-0.053-0.384-0.195c-0.124-0.131-0.173-0.322-0.162-0.468c0.015-0.29,0.054-0.55,0.089-0.83
				c0.075-0.551,0.152-1.1,0.235-1.511c0.042-0.205,0.083-0.375,0.117-0.498c0.037-0.137,0.066-0.194,0.066-0.194l0.005-0.009
				c0.028-0.055,0.095-0.077,0.15-0.049C157.751,85.573,157.774,85.632,157.756,85.685z"/>
		</g>
		<path id="XMLID_899_" style="fill:#3C3C3B;" d="M159.453,84.718c-0.211-0.635-0.048-1.39,0.456-1.831
			c0.044,0.055,0.088,0.109,0.132,0.164c0.133-0.121,0.267-0.242,0.4-0.362c0.059,0.044,0.117,0.087,0.176,0.131
			c0.977-0.675,2.167-1.035,3.355-1.015c0.51,0.009,1.063,0.109,1.402,0.489c-0.102,0.104-0.25,0.157-0.394,0.174
			c-2.007,0.238-3.243,0.62-5.359,2.306C159.62,84.773,159.492,84.835,159.453,84.718z"/>
		<path id="XMLID_92_" style="fill:#3C3C3B;" d="M149.499,70.619c-0.738,1.208-3.527,6.632-1.757,11.37
			c0.073,0.195,0.17,0.398,0.351,0.5c0.365,0.205,0.792-0.124,1.068-0.439c0.998-1.139,1.82-2.453,2.281-3.901
			c0.339-1.067,0.474-2.21,0.347-3.319c0,0,0.235,1.341,1.759,3.205c0.206,0.251,0.682,0.761,0.974,0.903
			c0.292,0.143,0.697,0.104,0.876-0.167c0.123-0.186,0.114-0.427,0.088-0.648c-0.076-0.659-0.258-1.305-0.536-1.907
			c1.465,1.364,2.999,2.769,4.911,3.36c0.573,0.177,1.325,0.214,1.643-0.294c0.168-0.269,0.154-0.612,0.1-0.924
			c-0.133-0.758-0.477-1.479-0.983-2.059c0.971,1.281,2.249,2.327,3.697,3.026c0.758,0.366,1.594,0.642,2.43,0.547
			c0.836-0.095,1.767-0.499,1.854-1.336c0.359-3.482-0.869-6.462-1.552-7.49c-4.261-6.418-9.737-3.555-10.885-3.703
			C153.599,67.011,150.802,68.368,149.499,70.619"/>
		<path id="XMLID_897_" style="fill:#3C3C3B;" d="M166.355,76.565c-0.246,1.72,0.071,3.516,0.891,5.049
			c0.096,0.18,0.226,0.375,0.427,0.404c0.172,0.024,0.34-0.089,0.432-0.236c0.092-0.147,0.125-0.322,0.156-0.493
			c0.317-1.761,0.621-3.644-0.096-5.283c-0.053-0.121-0.114-0.243-0.215-0.328c-0.117-0.098-0.274-0.135-0.427-0.138
			c-0.629-0.013-1.205,0.572-1.184,1.2"/>
		<path id="XMLID_896_" style="fill:#F7C5B4;" d="M162.424,95.639c0,0-3.665,2.743-8.936,0.031
			C153.488,95.67,158.139,100.783,162.424,95.639z"/>
		<path id="XMLID_892_" style="fill:#3C3C3B;" d="M156.061,84.718c0.211-0.635,0.048-1.39-0.456-1.831
			c-0.044,0.055-0.088,0.109-0.132,0.164c-0.133-0.121-0.267-0.242-0.4-0.362c-0.059,0.044-0.117,0.087-0.175,0.131
			c-0.977-0.675-2.168-1.035-3.355-1.015c-0.51,0.009-1.063,0.109-1.402,0.489c0.102,0.104,0.249,0.157,0.394,0.174
			c2.007,0.238,3.243,0.62,5.359,2.306C155.894,84.773,156.022,84.835,156.061,84.718z"/>
		<g id="XMLID_863_">
			<path id="XMLID_21_" style="fill:#DA806C;" d="M159.798,90.243c0,0-0.08,0.162-0.28,0.385c-0.198,0.211-0.504,0.454-0.85,0.634
				c-0.358,0.157-0.743,0.233-1.032,0.252c-0.291,0.013-0.48-0.031-0.48-0.031l-0.005-0.001c-0.077-0.018-0.124-0.094-0.107-0.171
				c0.014-0.061,0.066-0.104,0.125-0.11c0,0,0.175-0.017,0.426-0.063c0.253-0.034,0.581-0.135,0.883-0.285
				c0.313-0.128,0.601-0.316,0.792-0.486c0.194-0.154,0.328-0.288,0.328-0.288c0.05-0.051,0.132-0.051,0.183-0.001
				c0.04,0.04,0.049,0.101,0.025,0.149L159.798,90.243z"/>
		</g>
		<path id="XMLID_862_" style="fill:#3C3C3B;" d="M163.461,86.562c0,0.494-0.301,0.895-0.673,0.895
			c-0.372,0-0.673-0.401-0.673-0.895c0-0.494,0.301-0.895,0.673-0.895C163.16,85.667,163.461,86.068,163.461,86.562z"/>
		<path id="XMLID_861_" style="fill:#3C3C3B;" d="M153.146,86.558c0,0.494-0.301,0.895-0.673,0.895s-0.673-0.401-0.673-0.895
			c0-0.494,0.301-0.895,0.673-0.895S153.146,86.064,153.146,86.558z"/>
		<path id="XMLID_315_" style="fill:#E94552;" d="M173.269,143.731h-32.074c-1.767,0-3.2-1.433-3.2-3.2v-20.584
			c0-1.767,1.433-3.2,3.2-3.2h32.074c1.767,0,3.2,1.433,3.2,3.2v20.584C176.469,142.298,175.036,143.731,173.269,143.731z"/>
		<path id="XMLID_816_" style="fill:#3B5CAD;" d="M146.608,156.316c14.25-0.402,29.435-1.233,42.796-6.204
			c2.125-0.79,4.251-1.705,5.961-3.194c1.709-1.489,2.963-3.649,2.872-5.914c-0.117-2.939-2.504-5.428-5.266-6.439
			c-2.762-1.011-5.819-0.799-8.714-0.28c-13.107,2.353-25.531,10.747-38.381,15.162L146.608,156.316z"/>
		<path id="XMLID_815_" style="fill:#003A70;" d="M145.934,149.991c-3.037-0.219-5.949-0.642-8.991-0.633
			c-2.151,0.007-4.343,0.077-6.352,0.755c-0.921,0.311-1.805,0.756-2.48,1.411c-0.675,0.655-1.127,1.538-1.103,2.453
			c0.033,1.268,0.978,2.42,2.159,3.08c1.181,0.661,2.571,0.903,3.934,1.035c4.512,0.437,9.335-0.214,13.507-1.776L145.934,149.991z"
			/>
		<g id="XMLID_812_">
			<path id="XMLID_19_" style="fill:#003A70;" d="M176.866,136.162c0,0-0.477,0.194-1.311,0.533
				c-0.839,0.331-2.015,0.84-3.424,1.465c-1.415,0.61-3.032,1.396-4.777,2.211c-1.736,0.836-3.589,1.728-5.441,2.62
				c-1.862,0.876-3.727,1.747-5.489,2.538c-1.764,0.787-3.437,1.463-4.881,2.014c-1.439,0.563-2.671,0.95-3.529,1.223
				c-0.863,0.258-1.356,0.405-1.356,0.405s0.48-0.186,1.319-0.512c0.842-0.318,2.028-0.811,3.443-1.42
				c1.422-0.593,3.044-1.368,4.794-2.17c1.747-0.811,3.597-1.706,5.447-2.604c1.866-0.869,3.731-1.738,5.48-2.553
				c1.759-0.796,3.425-1.487,4.863-2.055c1.432-0.577,2.66-0.984,3.512-1.27C176.375,136.317,176.866,136.162,176.866,136.162z"/>
		</g>
		<path id="XMLID_811_" style="fill:#3B5CAD;" d="M164.993,155.399c-14.251-0.36-29.668-1.136-43.044-6.068
			c-2.127-0.784-4.257-1.692-5.97-3.177c-1.713-1.484-2.974-3.641-2.89-5.906c0.109-2.939,2.488-5.436,5.247-6.455
			c2.759-1.019,5.817-0.816,8.714-0.305c13.114,2.314,25.373,10.9,38.236,15.276L164.993,155.399z"/>
		<g id="XMLID_808_">
			<path id="XMLID_17_" style="fill:#003A70;" d="M135.771,135.878c0,0,0.479,0.157,1.317,0.433
				c0.831,0.288,2.029,0.697,3.428,1.269c1.404,0.563,3.033,1.246,4.753,2.03c1.711,0.802,3.535,1.657,5.36,2.512
				c1.81,0.883,3.62,1.762,5.327,2.562c1.712,0.79,3.297,1.556,4.685,2.145c1.382,0.604,2.539,1.099,3.359,1.419
				c0.818,0.33,1.285,0.518,1.285,0.518s-0.481-0.15-1.324-0.411c-0.837-0.276-2.039-0.665-3.445-1.223
				c-1.411-0.547-3.046-1.214-4.771-1.989c-1.722-0.78-3.548-1.635-5.368-2.497c-1.811-0.878-3.623-1.756-5.321-2.579
				c-1.706-0.802-3.286-1.581-4.668-2.186c-1.376-0.619-2.523-1.131-3.34-1.464C136.235,136.074,135.771,135.878,135.771,135.878z"
				/>
		</g>
		<path id="XMLID_807_" style="fill:#003A70;" d="M164.993,155.399c4.176,1.549,8.77,2.197,13.281,1.747
			c1.363-0.136,2.752-0.383,3.931-1.047c1.179-0.664,2.121-1.818,2.15-3.087c0.021-0.915-0.433-1.796-1.11-2.449
			c-0.677-0.653-1.562-1.095-2.484-1.403c-2.011-0.671-4.204-0.736-6.354-0.736c-3.042,0-6.085,0.114-9.122,0.342L164.993,155.399z"
			/>
		<g id="XMLID_928_">
			<path id="XMLID_15_" style="fill:#DA806C;" d="M132.307,128.324c0,0,0.199-0.104,0.503-0.242
				c0.307-0.131,0.711-0.309,1.174-0.394c0.465-0.044,0.898-0.013,1.232,0.005c0.332,0.025,0.555,0.052,0.555,0.052
				s-0.22,0.046-0.551,0.088c-0.329,0.049-0.785,0.045-1.201,0.101c-0.413,0.058-0.839,0.213-1.164,0.28
				C132.529,128.288,132.307,128.324,132.307,128.324z"/>
		</g>
		<g id="XMLID_852_">
			<path id="XMLID_860_" style="fill:#FFFFFF;" d="M158.639,125.939c5.029,1.203,2.754,6.757,2.754,6.757
				c0.513,2.378-1.799,2.13-1.799,2.13s-0.808,0.257-0.551,1.285c0,0-0.698,0.257-1.763,0.257c-1.065,0-1.885-0.257-1.885-0.257
				c0.257-1.028-0.551-1.285-0.551-1.285s-2.287,0.264-1.799-2.13c0,0-2.204-5.288,2.754-6.757
				C155.799,125.939,156.95,125.535,158.639,125.939z"/>
			<path id="XMLID_859_" style="fill:#E94552;" d="M157.868,130.695c0.128-0.215,0.346-0.369,0.592-0.416
				c0.246-0.046,0.5-0.01,0.746,0.039c0.292,0.058,0.581,0.134,0.865,0.226c0.213,0.07,0.435,0.157,0.572,0.335
				c0.141,0.183,0.166,0.43,0.155,0.661c-0.013,0.281-0.073,0.564-0.213,0.808c-0.14,0.244-0.366,0.446-0.638,0.518
				c-0.49,0.131-0.988-0.167-1.373-0.496c-0.394-0.337-0.728-0.705-0.779-1.221C157.795,131.15,157.807,130.798,157.868,130.695z"/>
			<path id="XMLID_858_" style="fill:#E94552;" d="M156.76,130.92c-0.078-0.238-0.257-0.436-0.487-0.535
				c-0.23-0.099-0.486-0.119-0.736-0.125c-0.298-0.007-0.596,0.004-0.893,0.032c-0.224,0.022-0.459,0.059-0.631,0.202
				c-0.178,0.148-0.256,0.384-0.296,0.611c-0.049,0.277-0.052,0.567,0.031,0.835c0.083,0.269,0.26,0.515,0.51,0.645
				c0.449,0.235,1.001,0.052,1.449-0.185c0.458-0.243,0.864-0.529,1.026-1.022C156.732,131.379,156.798,131.033,156.76,130.92z"/>
			<path id="XMLID_853_" style="fill:#E94552;" d="M157.32,132.037c0.05,0.026,0.112,0.079,0.149,0.128
				c0.191,0.254,0.323,0.571,0.402,0.905c0.027,0.113,0.041,0.256-0.033,0.331c-0.054,0.056-0.135,0.048-0.202,0.021
				c-0.067-0.027-0.131-0.071-0.201-0.079c-0.079-0.009-0.155,0.028-0.231,0.058c-0.119,0.046-0.26,0.068-0.358-0.027
				c-0.074-0.071-0.105-0.195-0.099-0.311c0.005-0.116,0.042-0.225,0.082-0.33c0.073-0.192,0.16-0.377,0.259-0.55
				C157.089,132.183,157.229,131.99,157.32,132.037z"/>
		</g>
		<g id="XMLID_90_">
			<path id="XMLID_13_" style="fill:#DA806C;" d="M182.838,128.324c0,0-0.222-0.036-0.547-0.109
				c-0.325-0.067-0.751-0.222-1.164-0.28c-0.416-0.056-0.872-0.052-1.201-0.101c-0.332-0.042-0.551-0.088-0.551-0.088
				s0.223-0.027,0.555-0.052c0.335-0.018,0.768-0.049,1.232-0.005c0.463,0.085,0.866,0.263,1.174,0.394
				C182.639,128.219,182.838,128.324,182.838,128.324z"/>
		</g>
	</g>
	<g id="XMLID_1035_">
		<rect id="XMLID_428_" x="221.694" y="259.99" style="fill:#3B5CAD;" width="65.708" height="58.492"/>
		<path id="XMLID_1037_" style="fill:none;stroke:#3B5CAD;stroke-width:4;stroke-miterlimit:10;" d="M228.825,247.128
			c0-14.148,11.575-25.723,25.723-25.723l0,0c14.148,0,25.723,11.575,25.723,25.723v12.861"/>
		<rect id="XMLID_936_" x="227.794" y="259.99" style="fill:#407CCA;" width="15.88" height="58.492"/>
		<g id="XMLID_989_">
			<circle id="XMLID_991_" style="fill:#003A70;" cx="254.548" cy="295.635" r="7.974"/>
			<circle id="XMLID_990_" style="fill:#003A70;" cx="254.548" cy="282.944" r="5.544"/>
		</g>
	</g>
	<g id="XMLID_657_">
		
			<line id="XMLID_633_" style="fill:none;stroke:#407CCA;stroke-width:0.5;stroke-miterlimit:10;" x1="292.136" y1="101.221" x2="292.136" y2="186.84"/>
		
			<line id="XMLID_796_" style="fill:none;stroke:#407CCA;stroke-width:0.4819;stroke-miterlimit:10;" x1="223.694" y1="99.512" x2="223.694" y2="179.04"/>
		<g id="XMLID_225_">
			<path id="XMLID_1036_" style="fill:#E94552;" d="M241.024,191.391l53.754,0c1.881,0,3.421-1.539,3.421-3.421l0,0
				c0-1.881-1.539-3.421-3.421-3.421l-53.754,0c-1.881,0-3.421,1.539-3.421,3.421l0,0
				C237.603,189.851,239.142,191.391,241.024,191.391z"/>
			<rect id="XMLID_1039_" x="289.495" y="191.39" style="fill:#E94552;" width="5.283" height="5.781"/>
			
				<rect id="XMLID_1038_" x="282.228" y="191.39" transform="matrix(-1 -1.224647e-16 1.224647e-16 -1 568.4192 387.4053)" style="fill:#E94552;" width="3.964" height="4.624"/>
			
				<rect id="XMLID_1042_" x="274.465" y="191.39" transform="matrix(-1 -1.224647e-16 1.224647e-16 -1 553.0592 387.4053)" style="fill:#E94552;" width="4.129" height="4.624"/>
			
				<rect id="XMLID_58_" x="249.479" y="186.025" transform="matrix(-1 -1.224647e-16 1.224647e-16 -1 544.2565 372.8656)" style="fill:#F19091;" width="45.298" height="0.815"/>
			
				<rect id="XMLID_61_" x="289.495" y="196.015" transform="matrix(-1 -1.224647e-16 1.224647e-16 -1 584.2722 393.1859)" style="fill:#C43146;" width="5.283" height="1.156"/>
			
				<rect id="XMLID_168_" x="282.228" y="195.061" transform="matrix(-1 -1.224647e-16 1.224647e-16 -1 568.4192 391.0756)" style="fill:#C43146;" width="3.964" height="0.954"/>
			
				<rect id="XMLID_169_" x="274.465" y="195.061" transform="matrix(-1 -1.224647e-16 1.224647e-16 -1 553.0593 391.0756)" style="fill:#C43146;" width="4.129" height="0.954"/>
			<path id="XMLID_1047_" style="fill:#E94552;" d="M211.984,186.84c0,9.716,7.876,17.592,17.592,17.592
				c9.716,0,17.592-7.876,17.592-17.592c0-9.716-7.876-17.592-17.592-17.592C219.86,169.248,211.984,177.124,211.984,186.84z"/>
			<path id="XMLID_662_" style="fill:#AC2C3D;" d="M214.518,186.84c0,8.316,6.742,15.058,15.058,15.058
				c8.316,0,15.058-6.742,15.058-15.058c0-8.316-6.742-15.058-15.058-15.058C221.26,171.783,214.518,178.524,214.518,186.84z"/>
			<path id="XMLID_1076_" style="fill:#FFFFFF;" d="M220.885,186.84c0,2.196,1.78,3.975,3.976,3.975c2.196,0,3.976-1.78,3.976-3.976
				c0-2.196-1.78-3.975-3.976-3.975C222.665,182.865,220.885,184.645,220.885,186.84z"/>
		</g>
		<path id="XMLID_299_" style="fill:#6F95D4;" d="M211.578,94.956c4.219-4.422,13.596-4.609,18.397-0.828
			c4.66-10.687,19.279-15.578,29.432-9.846c1.955-5.404,10.423-11.966,22.661-9.134c8.249,1.909,15.634,9.873,13.477,18.06
			c5.7-0.824,11.458,3.092,13.667,8.412c2.208,5.32,1.233,11.606-1.634,16.601h-93.615
			C213.963,118.221,200.103,106.981,211.578,94.956z"/>
	</g>
	<g id="XMLID_1025_">
		<rect id="XMLID_1029_" x="125.016" y="241.089" style="fill:#407CCA;" width="36.745" height="1.244"/>
		<rect id="XMLID_1028_" x="125.016" y="245.992" style="fill:#407CCA;" width="36.745" height="1.244"/>
		<rect id="XMLID_1027_" x="125.016" y="250.697" style="fill:#407CCA;" width="36.745" height="1.244"/>
		<rect id="XMLID_1026_" x="125.016" y="255.368" style="fill:#407CCA;" width="19.35" height="1.244"/>
	</g>
	<g id="XMLID_951_">
		<rect id="XMLID_663_" x="66.761" y="326.411" style="fill:#3B5CAD;" width="129.976" height="78.663"/>
		<polygon id="XMLID_851_" style="fill:#3B5CAD;" points="66.761,326.411 131.749,287.103 196.737,326.411 		"/>
		<g id="XMLID_992_">
			<rect id="XMLID_970_" x="88.507" y="297.731" style="fill:#FFFFFF;" width="88.629" height="100.715"/>
			<g id="XMLID_965_">
				<rect id="XMLID_969_" x="94.713" y="312.702" style="fill:#407CCA;" width="76.216" height="2.68"/>
				<rect id="XMLID_968_" x="94.713" y="319.216" style="fill:#407CCA;" width="76.216" height="2.68"/>
				<rect id="XMLID_967_" x="94.713" y="326.083" style="fill:#407CCA;" width="76.216" height="2.679"/>
				<rect id="XMLID_966_" x="94.713" y="333.42" style="fill:#407CCA;" width="34.523" height="2.68"/>
			</g>
			<g id="XMLID_984_">
				<rect id="XMLID_988_" x="94.713" y="344.387" style="fill:#407CCA;" width="76.216" height="2.68"/>
				<rect id="XMLID_987_" x="94.713" y="350.901" style="fill:#407CCA;" width="76.216" height="2.68"/>
				<rect id="XMLID_986_" x="94.713" y="357.768" style="fill:#407CCA;" width="76.216" height="2.68"/>
				<rect id="XMLID_985_" x="94.713" y="365.105" style="fill:#407CCA;" width="34.523" height="2.679"/>
			</g>
		</g>
		<polygon id="XMLID_848_" style="fill:#407CCA;" points="66.761,405.074 131.749,365.742 196.737,405.074 		"/>
		<polygon id="XMLID_849_" style="fill:#6F95D4;" points="66.761,326.411 131.749,365.742 66.761,405.074 		"/>
		<polygon id="XMLID_950_" style="fill:#6F95D4;" points="196.737,326.411 131.749,365.742 196.737,405.074 		"/>
	</g>
	<g id="XMLID_1024_">
		
			<ellipse id="XMLID_1010_" transform="matrix(0.7071 -0.7071 0.7071 0.7071 -257.0598 173.1617)" style="fill:#E94552;" cx="80.495" cy="396.879" rx="28.849" ry="28.849"/>
		<polygon id="XMLID_1009_" style="fill:#FFFFFF;" points="79.462,378.108 96.869,400.219 86.754,400.219 86.754,415.509 
			72.17,415.509 72.17,400.454 62.055,400.454 		"/>
	</g>
	<g id="XMLID_685_">
		<g id="XMLID_1031_">
			<rect id="XMLID_1044_" x="307.272" y="279.566" style="fill:#407CCA;" width="76.495" height="1.244"/>
			<rect id="XMLID_1034_" x="307.272" y="284.47" style="fill:#407CCA;" width="76.495" height="1.244"/>
			<rect id="XMLID_1033_" x="307.272" y="289.175" style="fill:#407CCA;" width="76.495" height="1.244"/>
			<rect id="XMLID_1032_" x="307.272" y="293.845" style="fill:#407CCA;" width="76.955" height="1.244"/>
		</g>
		<rect id="XMLID_1046_" x="307.272" y="270.22" style="opacity:0.9;fill:#E94552;" width="5.896" height="6.25"/>
	</g>
	<g id="XMLID_680_">
		<g id="XMLID_1054_">
			<rect id="XMLID_1058_" x="307.272" y="311.537" style="fill:#407CCA;" width="76.495" height="1.244"/>
			<rect id="XMLID_1057_" x="307.272" y="316.44" style="fill:#407CCA;" width="76.495" height="1.244"/>
			<rect id="XMLID_1056_" x="307.272" y="321.145" style="fill:#407CCA;" width="76.495" height="1.244"/>
			<rect id="XMLID_1055_" x="307.272" y="325.816" style="fill:#407CCA;" width="76.955" height="1.244"/>
		</g>
		<rect id="XMLID_1053_" x="307.272" y="302.19" style="opacity:0.9;fill:#E94552;" width="5.896" height="6.25"/>
	</g>
	<g id="XMLID_658_">
		<path id="XMLID_798_" style="fill:#C7D4E2;" d="M188.336,229.565H74.469c-2.75,0-5-2.25-5-5V184.3c0-2.75,2.25-5,5-5h113.867
			c2.75,0,5,2.25,5,5v40.265C193.336,227.315,191.086,229.565,188.336,229.565z"/>
		<path id="XMLID_797_" style="fill:#FFFFFF;" d="M186.49,229.565H72.623c-2.75,0-5-2.25-5-5v-38.113c0-2.75,2.25-5,5-5H186.49
			c2.75,0,5,2.25,5,5v38.113C191.49,227.315,189.24,229.565,186.49,229.565z"/>
		<g id="XMLID_820_">
			<path id="XMLID_822_" style="fill:#407CCA;" d="M105.662,219.388c-2.044-5.171-6.29-10.344-15.097-10.351
				c-8.831-0.007-13.077,5.166-15.115,10.34L105.662,219.388z"/>
			<path id="XMLID_821_" style="fill:#407CCA;" d="M97.771,199.62c0,3.98-3.226,7.206-7.206,7.206c-3.98,0-7.206-3.226-7.206-7.206
				c0-3.98,3.226-7.206,7.206-7.206C94.545,192.414,97.771,195.64,97.771,199.62z"/>
		</g>
		<g id="XMLID_1094_">
			<rect id="XMLID_1098_" x="109.612" y="198.305" style="fill:#407CCA;" width="76.495" height="1.244"/>
			<rect id="XMLID_1097_" x="109.612" y="203.208" style="fill:#407CCA;" width="76.495" height="1.244"/>
			<rect id="XMLID_1096_" x="109.612" y="207.913" style="fill:#407CCA;" width="76.495" height="1.244"/>
			<rect id="XMLID_1095_" x="109.612" y="212.584" style="fill:#407CCA;" width="40.283" height="1.244"/>
		</g>
		<g id="XMLID_1048_">
			<rect id="XMLID_1052_" x="109.612" y="198.305" style="fill:#407CCA;" width="76.495" height="1.244"/>
			<rect id="XMLID_1051_" x="109.612" y="203.208" style="fill:#407CCA;" width="76.495" height="1.244"/>
			<rect id="XMLID_1050_" x="109.612" y="207.913" style="fill:#407CCA;" width="76.495" height="1.244"/>
			<rect id="XMLID_1049_" x="109.612" y="212.584" style="fill:#407CCA;" width="40.283" height="1.244"/>
		</g>
	</g>
	<g id="XMLID_1187_">
		<path id="XMLID_1191_" style="fill:#6F95D4;" d="M295.708,233.288l2.738,2.84c0,0,6.085-7.302,16.429-6.896
			c10.344,0.406,16.023,6.896,16.023,6.896l2.839-2.84C333.738,233.288,316.092,215.439,295.708,233.288z"/>
		<path id="XMLID_1190_" style="fill:#6F95D4;" d="M300.475,238.156l3.042,3.042c0,0,8.924-10.141,22.412,0l2.738-3.042
			C328.667,238.156,316.092,225.479,300.475,238.156z"/>
		<path id="XMLID_1189_" style="fill:#6F95D4;" d="M308.486,246.268c0,0,6.085-6.186,12.169,0l3.042-3.245c0,0-8.417-7.707-18.153,0
			L308.486,246.268z"/>
		<path id="XMLID_1188_" style="fill:#6F95D4;" d="M318.019,250.426c0,1.876-1.521,3.397-3.397,3.397
			c-1.876,0-3.397-1.521-3.397-3.397c0-1.876,1.521-3.397,3.397-3.397C316.498,247.029,318.019,248.55,318.019,250.426z"/>
	</g>
	<g id="XMLID_659_">
		<g id="XMLID_426_">
			<rect id="XMLID_647_" x="252.816" y="346.218" style="fill:#407CCA;" width="76.495" height="1.244"/>
			<rect id="XMLID_646_" x="252.816" y="351.122" style="fill:#407CCA;" width="76.495" height="1.244"/>
			<rect id="XMLID_645_" x="252.816" y="355.827" style="fill:#407CCA;" width="76.495" height="1.244"/>
			<rect id="XMLID_639_" x="252.816" y="360.497" style="fill:#407CCA;" width="76.955" height="1.244"/>
		</g>
		<g id="XMLID_1059_">
			
				<circle id="XMLID_1061_" style="fill:none;stroke:#E94552;stroke-width:2.2528;stroke-miterlimit:10;" cx="235.065" cy="353.915" r="11.39"/>
			
				<line id="XMLID_1060_" style="fill:none;stroke:#E94552;stroke-width:2.2528;stroke-miterlimit:10;" x1="243.095" y1="345.949" x2="227.034" y2="362.011"/>
		</g>
		<path id="XMLID_638_" style="fill:none;stroke:#407CCA;stroke-width:0.5;stroke-miterlimit:10;" d="M328.712,370.397H222.219
			c-3.903,0-7.067-3.164-7.067-7.067v-18.828c0-3.903,3.164-7.067,7.067-7.067h106.493c3.903,0,7.067,3.164,7.067,7.067v18.828
			C335.779,367.233,332.615,370.397,328.712,370.397z"/>
	</g>
	<g id="XMLID_632_">
		<g id="XMLID_846_">
			<path id="XMLID_752_" style="fill:#C7D4E2;" d="M436.052,216.064H331.905c-2.75,0-5-2.25-5-5v-36.321c0-2.75,2.25-5,5-5h104.147
				c2.75,0,5,2.25,5,5v36.321C441.052,213.814,438.802,216.064,436.052,216.064z"/>
			<path id="XMLID_696_" style="fill:#FFFFFF;" d="M434.351,216.064H330.204c-2.75,0-5-2.25-5-5v-34.338c0-2.75,2.25-5,5-5h104.147
				c2.75,0,5,2.25,5,5v34.338C439.351,213.814,437.101,216.064,434.351,216.064z"/>
			<path id="XMLID_814_" style="fill:#407CCA;" d="M326.447,179.871h112.904v-3.673c0-2.46-2.013-4.472-4.472-4.472H329.676
				c-2.46,0-4.472,2.013-4.472,4.472v3.673H326.447z"/>
			
				<text id="XMLID_795_" transform="matrix(1 0 0 1 376.5894 209.0037)" style="fill:#407CCA; font-family:'Antonio-Regular'; font-size:11.8439px; letter-spacing:1;">*******</text>
			
				<text id="XMLID_845_" transform="matrix(1 0 0 1 376.5894 198.9402)" style="fill:#407CCA; font-family:'Antonio-Regular'; font-size:11.8439px; letter-spacing:1;">*****</text>
			
				<rect id="XMLID_830_" x="331.819" y="183.454" style="fill:none;stroke:#407CCA;stroke-width:0.2236;stroke-miterlimit:10;" width="102.211" height="26.444"/>
			<text id="XMLID_844_" transform="matrix(1 0 0 1 341.5777 194.447)"><tspan x="0" y="0" style="fill:#407CCA; font-family:'Antonio-Regular'; font-size:6.6422px;">LOGIN</tspan><tspan x="0" y="9.839" style="fill:#407CCA; font-family:'Antonio-Regular'; font-size:6.6422px;">PASSWORD</tspan></text>
		</g>
		<path id="XMLID_414_" style="fill:#F7C5B4;" d="M401.587,252.416c3.332-4.873,5.045-10.705,5.781-16.561
			c0.735-5.857,0.693-12.703,0.496-18.603c-0.811-0.644-1.613-1.504-2.146-2.391c-0.248-0.413-0.443-0.992-0.102-1.331
			c0.161-0.16,0.403-0.212,0.63-0.208c0.783,0.015,1.43,0.58,2.146,0.897c1.076,0.478,2.308,0.391,3.482,0.295
			c1.172-0.096,2.344-0.191,3.516-0.287c0.206-0.017,0.42-0.033,0.614,0.04c0.406,0.152,0.579,0.725,0.325,1.075l-0.733,1.91
			c0.954,10.199,0.291,22.496-2.396,32.38c-1.036,3.811-2.962,7.547-5.336,10.704"/>
		<path id="XMLID_409_" style="fill:#F7C5B4;" d="M357.949,252.492c-3.332-4.873-5.045-10.704-5.781-16.561
			c-0.735-5.857-0.693-12.703-0.496-18.603c0.811-0.644,1.613-1.504,2.146-2.391c0.248-0.413,0.443-0.992,0.102-1.331
			c-0.161-0.16-0.403-0.212-0.63-0.208c-0.783,0.015-1.43,0.58-2.146,0.897c-1.076,0.478-2.308,0.391-3.482,0.295
			c-1.172-0.096-2.344-0.192-3.516-0.287c-0.206-0.017-0.42-0.033-0.614,0.04c-0.406,0.152-0.579,0.725-0.325,1.075l0.733,1.909
			c-0.954,10.199-0.291,22.496,2.396,32.38c1.036,3.811,2.961,7.547,5.335,10.704"/>
		<path id="XMLID_387_" style="fill:#3B5CAD;" d="M395.989,307.15c1.985,5.757,4.044,28.973,4.474,35.115
			c1.777,25.383,1.095,34.272,0.129,58.286c-0.243,6.031-0.513,13.82-0.756,19.851h-7.642c-3.894-23.786-10.187-74.627-12.118-98.69
			c0,0-7.875,74.542-11.693,98.34h-7.789c-0.262-6.03-0.411-13.793-0.673-19.824c-0.597-13.746-0.311-25.612-0.214-39.383
			c0.073-10.283-0.35-22.482,0.784-32.707c0.679-6.12,1.088-15.225,3.055-20.988H395.989z"/>
		<path id="XMLID_367_" style="fill:#003A70;" d="M392.216,420.431c-0.134,1.733,0.097,2.777,1.059,3.72
			c0.961,0.943,2.259,1.398,3.515,1.823c2.586,0.875,5.303,1.745,7.98,1.252c0.676-0.124,1.443-0.445,1.602-1.141
			c0.147-0.647-0.315-1.26-0.765-1.733c-1.456-1.528-3.95-2.932-5.771-3.951L392.216,420.431z"/>
		<path id="XMLID_386_" style="fill:#003A70;" d="M368.39,420.081c0.134,1.733-0.097,2.777-1.059,3.72
			c-0.961,0.943-2.259,1.398-3.515,1.823c-2.586,0.875-5.303,1.745-7.98,1.251c-0.676-0.124-1.443-0.445-1.602-1.141
			c-0.147-0.647,0.315-1.26,0.765-1.733c1.456-1.528,3.95-2.932,5.771-3.951L368.39,420.081z"/>
		<path id="XMLID_319_" style="fill:#003A70;" d="M368.463,255.195c-1.076,0.342-2.73,0.394-3.841,0.195
			c-0.79-0.141-1.529-0.488-2.23-0.878c-1.951-1.086-3.708-2.554-4.993-4.38l-6.88,8.776c0.961,2.558,2.263,5.012,4.059,7.072
			c1.795,2.06,4.506,3.844,7.122,4.632c1.445,9.547,2.12,28.322,1.847,36.538c0,0,5.138,0.365,12.861,0.886
			c0.616,0.042,1.25,0.072,1.894,0.092l1.226-0.011h0.479l1.226,0.011c0.645-0.02,1.279-0.05,1.895-0.092
			c7.723-0.522,12.861-0.886,12.861-0.886c-0.427-16.996,0.519-21.858,1.847-36.538c2.616-0.788,5.327-2.572,7.122-4.632
			c1.795-2.06,3.098-4.514,4.058-7.072l-6.879-8.776c-1.285,1.826-3.042,3.294-4.993,4.38c-0.701,0.39-1.44,0.737-2.23,0.878
			c-1.112,0.199-3.244-0.021-4.32-0.363L368.463,255.195z"/>
		<path id="XMLID_1198_" style="fill:#F7C5B4;" d="M383.812,244.94c0.244,1.735,0.487,3.469,0.731,5.204
			c0.09,0.636,0.198,1.722,0.506,2.286c0.493,0.903,4.759,2.173,5.545,2.597c0,0-3.345,2.917-11.365,3.354
			c-8.02,0.437-10.766-3.186-10.766-3.186c0.773-0.447,4.725-1.993,5.191-2.91c0.291-0.573,0.367-1.662,0.438-2.301
			c0.192-1.741,0.384-3.482,0.576-5.224"/>
		<path id="XMLID_1197_" style="fill:#F7C5B4;" d="M387.953,227.085c0.734,3.668-0.122,11.084-0.868,14.02
			c-0.303,1.194-0.63,2.428-1.381,3.404c-3.712,4.821-8.776,3.39-10.45,2.325c-1.313-0.835-2.366-1.994-2.987-3.421
			c-1.585-3.642-2.272-7.671-1.986-11.632c0,0-0.594-10.318,9.967-10.475C380.247,221.305,386.727,220.96,387.953,227.085z"/>
		<path id="XMLID_1196_" style="fill:#F7C5B4;" d="M370.546,236.645c-0.222,0.332-0.748,0.33-1.064,0.086
			c-0.316-0.244-0.461-0.647-0.544-1.038c-0.08-0.382-0.115-0.774-0.104-1.164c0.008-0.28,0.047-0.577,0.226-0.792
			c0.178-0.215,0.488-0.31,0.756-0.232c0.268,0.077,0.479,0.323,0.516,0.599L370.546,236.645z"/>
		<path id="XMLID_1195_" style="fill:#F7C5B4;" d="M388.046,233.396c0.083-0.266,0.232-0.529,0.498-0.614s0.578,0,0.763,0.209
			c0.185,0.21,0.233,0.505,0.25,0.785c0.023,0.39,0,0.782-0.069,1.166c-0.07,0.393-0.204,0.801-0.512,1.054
			c-0.309,0.253-0.834,0.271-1.066-0.055C387.909,235.941,387.659,234.642,388.046,233.396z"/>
		<path id="XMLID_1194_" style="fill:#3C3C3B;" d="M373.288,225.562c0.435,1.368,0.377,2.868-0.041,4.241
			c-0.418,1.373-1.182,2.625-2.117,3.715c-0.259,0.302-0.661,0.618-1.011,0.43c-0.173-0.093-0.266-0.285-0.341-0.467
			c-0.902-2.2-0.678-4.828,0.582-6.843c-0.039-1.667,0.406-3.489,1.528-4.723c1.121-1.234,2.727-2.014,4.39-2.134
			c1.781-0.128,3.849,0.122,5.381-0.796c0.076,0.469-0.053,0.967-0.348,1.34c2.036,0.676,4.32,0.575,6.288-0.278
			c-0.133,0.951-0.408,1.881-0.812,2.752c0.514,0.517,1.282,0.716,2.011,0.692c0.729-0.024,1.435-0.246,2.13-0.467
			c-0.3,1.767-0.824,3.893-2.421,4.707c-3.891,1.983-7.058,0.707-9.182-0.171c0.214,0.478,0.567,0.893,1.004,1.18
			c-1.319,0.107-2.644-0.257-3.824-0.855c-1.18-0.598-2.229-1.424-3.23-2.288"/>
		<path id="XMLID_1193_" style="fill:#F7C5B4;" d="M383.978,246.263c0,0-1.375,1.361-4.323,1.644
			c-2.947,0.283-4.867-1.38-5.175-1.659c0,0,0.656,3.244,4.911,3.212C383.497,249.429,383.978,246.263,383.978,246.263z"/>
		<path id="XMLID_1186_" style="fill:#3C3C3B;" d="M375.587,235.062c0.007,0.464-0.364,0.846-0.828,0.853
			c-0.464,0.007-0.846-0.364-0.853-0.828c-0.007-0.464,0.364-0.846,0.828-0.853C375.199,234.227,375.58,234.598,375.587,235.062z"/>
		<path id="XMLID_1171_" style="fill:#3C3C3B;" d="M382.595,235.087c0.007,0.464,0.389,0.835,0.853,0.828
			c0.464-0.007,0.835-0.389,0.828-0.853c-0.007-0.464-0.389-0.835-0.853-0.828C382.958,234.241,382.588,234.623,382.595,235.087z"/>
		<path id="XMLID_1169_" style="fill:#3C3C3B;" d="M381.047,233.906c-0.257-0.487-0.32-1.075-0.142-1.595
			c0.116,0.149,0.37,0.16,0.498,0.022c0.053-0.058,0.087-0.137,0.156-0.176c0.055-0.032,0.122-0.032,0.186-0.038
			c0.28-0.026,0.529-0.181,0.782-0.302c1.11-0.531,2.503-0.42,3.517,0.28c-0.244,0.278-0.669,0.269-1.037,0.311
			c-1.435,0.161-2.35,1.344-3.78,1.546C381.227,233.953,381.084,233.975,381.047,233.906z"/>
		<g id="XMLID_1166_">
			<path id="XMLID_11_" style="fill:#DA806C;" d="M379.825,241.525c0,0-0.201,0.092-0.535,0.125
				c-0.332,0.028-0.784-0.017-1.198-0.216c-0.192-0.096-0.383-0.237-0.532-0.379c-0.152-0.145-0.273-0.299-0.364-0.438
				c-0.177-0.285-0.227-0.504-0.227-0.504l-0.002-0.008c-0.01-0.046,0.019-0.092,0.065-0.102c0.041-0.009,0.082,0.013,0.097,0.051
				c0,0,0.078,0.191,0.256,0.435c0.087,0.123,0.202,0.257,0.343,0.381c0.144,0.126,0.303,0.23,0.49,0.323
				c0.345,0.187,0.759,0.252,1.059,0.24c0.303-0.004,0.505-0.059,0.505-0.059c0.041-0.011,0.084,0.013,0.095,0.055
				c0.01,0.037-0.009,0.076-0.043,0.091L379.825,241.525z"/>
		</g>
		<path id="XMLID_1165_" style="fill:#3C3C3B;" d="M387.078,228.184c-0.208,1.628,0.116,3.318,0.912,4.753
			c0.093,0.168,0.218,0.351,0.409,0.375c0.163,0.021,0.319-0.089,0.405-0.228c0.085-0.14,0.113-0.306,0.14-0.468
			c0.274-1.666,0.535-3.449-0.165-4.986c-0.052-0.113-0.111-0.228-0.207-0.307c-0.112-0.091-0.261-0.123-0.405-0.124
			c-0.594-0.003-1.13,0.557-1.101,1.15"/>
		<g id="XMLID_1162_">
			<path id="XMLID_9_" style="fill:#DA806C;" d="M379.08,234.837c0,0-0.04,0.314-0.099,0.785c-0.063,0.468-0.115,1.097-0.115,1.726
				c-0.009,0.314-0.017,0.628-0.009,0.923c-0.008,0.313,0.064,0.438,0.243,0.536c0.342,0.165,0.709,0.103,0.697,0.118
				c0.071-0.004,0.131,0.05,0.135,0.121c0.004,0.071-0.05,0.131-0.121,0.135c0,0-0.081,0.008-0.224,0.023
				c-0.142,0.004-0.374,0.037-0.642-0.092c-0.13-0.065-0.265-0.161-0.36-0.335c-0.086-0.16-0.095-0.347-0.103-0.49
				c-0.018-0.303-0.031-0.626-0.024-0.95c0.03-0.647,0.114-1.289,0.201-1.765c0.095-0.476,0.192-0.782,0.192-0.782
				c0.018-0.062,0.084-0.098,0.146-0.08C379.051,234.726,379.085,234.782,379.08,234.837z"/>
		</g>
		<path id="XMLID_664_" style="fill:#3C3C3B;" d="M377.628,233.935c0.257-0.487,0.32-1.076,0.142-1.595
			c-0.116,0.149-0.37,0.16-0.497,0.022c-0.053-0.058-0.087-0.137-0.156-0.176c-0.055-0.032-0.122-0.032-0.186-0.038
			c-0.28-0.026-0.529-0.181-0.782-0.302c-1.11-0.531-2.503-0.42-3.517,0.28c0.244,0.278,0.669,0.27,1.037,0.311
			c1.435,0.161,2.35,1.344,3.78,1.546C377.449,233.982,377.592,234.004,377.628,233.935z"/>
		<g id="XMLID_872_">
			<path id="XMLID_876_" style="fill:#FFFFFF;" d="M389.209,269.238c3.487,0.834,1.91,4.685,1.91,4.685
				c0.356,1.649-1.248,1.477-1.248,1.477s-0.56,0.178-0.382,0.891c0,0-0.484,0.178-1.222,0.178s-1.307-0.178-1.307-0.178
				c0.178-0.713-0.382-0.891-0.382-0.891s-1.586,0.183-1.248-1.477c0,0-1.528-3.667,1.91-4.685
				C387.24,269.238,388.037,268.958,389.209,269.238z"/>
			<path id="XMLID_875_" style="fill:#003A70;" d="M388.674,272.536c0.089-0.149,0.24-0.256,0.411-0.288
				c0.171-0.032,0.347-0.007,0.517,0.027c0.203,0.04,0.403,0.093,0.599,0.157c0.148,0.048,0.302,0.109,0.397,0.232
				c0.098,0.127,0.115,0.298,0.108,0.458c-0.009,0.195-0.05,0.391-0.147,0.56c-0.097,0.169-0.254,0.309-0.442,0.359
				c-0.34,0.091-0.685-0.116-0.952-0.344c-0.273-0.234-0.505-0.489-0.54-0.847C388.623,272.851,388.631,272.607,388.674,272.536z"/>
			<path id="XMLID_874_" style="fill:#003A70;" d="M387.906,272.692c-0.054-0.165-0.178-0.302-0.338-0.371
				c-0.16-0.069-0.337-0.082-0.51-0.087c-0.207-0.005-0.414,0.003-0.619,0.023c-0.155,0.015-0.318,0.041-0.438,0.14
				c-0.123,0.103-0.177,0.266-0.205,0.424c-0.034,0.192-0.036,0.393,0.022,0.579c0.058,0.186,0.181,0.357,0.353,0.447
				c0.312,0.163,0.694,0.036,1.004-0.129c0.318-0.168,0.599-0.367,0.711-0.709C387.886,273.01,387.932,272.771,387.906,272.692z"/>
			<path id="XMLID_873_" style="fill:#003A70;" d="M388.294,273.466c0.035,0.018,0.078,0.055,0.103,0.089
				c0.133,0.176,0.224,0.396,0.279,0.627c0.018,0.079,0.028,0.178-0.023,0.23c-0.038,0.039-0.093,0.033-0.14,0.014
				c-0.046-0.019-0.09-0.049-0.139-0.055c-0.055-0.006-0.108,0.02-0.16,0.04c-0.082,0.032-0.18,0.047-0.248-0.018
				c-0.051-0.049-0.073-0.135-0.069-0.216c0.004-0.08,0.029-0.156,0.057-0.229c0.051-0.133,0.111-0.261,0.18-0.381
				C388.134,273.567,388.231,273.433,388.294,273.466z"/>
		</g>
	</g>
	<g id="XMLID_1030_">
		
			<ellipse id="XMLID_1140_" transform="matrix(0.6705 -0.7419 0.7419 0.6705 -114.4451 217.9889)" style="opacity:0.9;fill:#E94552;" cx="188.175" cy="237.829" rx="17.482" ry="17.482"/>
		<g id="XMLID_1172_">
			<path id="XMLID_1125_" style="fill:#FFFFFF;" d="M188.494,245.722h-0.289c-1.135,0-2.085-0.861-2.198-1.99l-1.579-15.892
				c-0.129-1.3,0.892-2.427,2.198-2.427h3.101c1.287,0,2.301,1.096,2.202,2.379l-1.232,15.892
				C190.606,244.835,189.647,245.722,188.494,245.722z"/>
			<path id="XMLID_1126_" style="fill:#FFFFFF;" d="M190.582,249.257c0,1.329-1.078,2.407-2.407,2.407
				c-1.329,0-2.407-1.078-2.407-2.407c0-1.329,1.078-2.407,2.407-2.407C189.504,246.85,190.582,247.928,190.582,249.257z"/>
		</g>
	</g>
</g>
</svg>
